<svg xmlns="http://www.w3.org/2000/svg" viewBox="0 0 24 24" id="jupyter">
  <path d="M3.58 8.924a.501.501 0 0 1-.469-.673c.69-1.868 1.853-3.396 3.557-4.672a9.858 9.858 0 0 1 11.23.086c1.595 1.095 2.829 2.678 3.568 4.578a.5.5 0 0 1-.838.516c-1.734-1.925-4.929-3.121-8.338-3.121-3.544 0-6.658 1.163-8.331 3.111a.494.494 0 0 1-.379.175zm8.711-4.285c2.626 0 5.148.672 7.075 1.83a8.484 8.484 0 0 0-2.036-1.98l-.005-.003c-3.104-2.189-7.152-2.1-10.074-.093a9.661 9.661 0 0 0-2.04 2.033c1.884-1.142 4.374-1.787 7.08-1.787zm0 16.462a9.862 9.862 0 0 1-5.606-1.731c-1.595-1.095-2.829-2.678-3.57-4.579a.5.5 0 0 1 .838-.516c1.735 1.925 4.93 3.121 8.338 3.121 3.409 0 6.604-1.196 8.338-3.121a.5.5 0 0 1 .838.516c-.74 1.9-1.975 3.484-3.57 4.579a9.866 9.866 0 0 1-5.606 1.731zm-7.076-4.536a8.484 8.484 0 0 0 2.036 1.98c2.964 2.036 7.115 2.036 10.079 0a8.502 8.502 0 0 0 2.036-1.98c-1.927 1.157-4.449 1.83-7.075 1.83s-5.149-.672-7.076-1.83zM3.968 5.059c-.81 0-1.468-.658-1.468-1.466a1.469 1.469 0 0 1 2.936 0 1.47 1.47 0 0 1-1.468 1.466zm0-1.933c-.258 0-.468.209-.468.466a.468.468 0 0 0 .936 0 .467.467 0 0 0-.468-.466zM5.419 24c-1.236 0-2.242-1.005-2.242-2.24a2.243 2.243 0 0 1 4.484 0A2.244 2.244 0 0 1 5.419 24zm0-3.479c-.685 0-1.242.556-1.242 1.239a1.242 1.242 0 0 0 2.484 0c0-.683-.557-1.239-1.242-1.239zM19.064 3.706c-1.023 0-1.855-.831-1.855-1.853S18.042 0 19.064 0s1.855.831 1.855 1.853-.832 1.853-1.855 1.853zm0-2.706c-.472 0-.855.383-.855.853a.855.855 0 0 0 1.71 0A.855.855 0 0 0 19.064 1z"></path>
</svg>
