<?xml version="1.0" encoding="UTF-8"?>
<svg version="1.1" xmlns="http://www.w3.org/2000/svg" width="41" height="47">
<path d="M0 0 C13.53 0 27.06 0 41 0 C41 15.51 41 31.02 41 47 C27.47 47 13.94 47 0 47 C0 31.49 0 15.98 0 0 Z " fill="#BDBDBD" transform="translate(0,0)"/>
<path d="M0 0 C2.93774463 -0.05390357 5.87450232 -0.0936255 8.8125 -0.125 C10.06256836 -0.15013672 10.06256836 -0.15013672 11.33789062 -0.17578125 C12.14033203 -0.18222656 12.94277344 -0.18867187 13.76953125 -0.1953125 C14.50792236 -0.20578613 15.24631348 -0.21625977 16.00708008 -0.22705078 C18 0 18 0 21 2 C21.1875 5.625 21.1875 5.625 21 9 C18.36 9 15.72 9 13 9 C13 7.68 13 6.36 13 5 C11.37025436 5.76074843 9.74633352 6.53398433 8.125 7.3125 C7.22007813 7.74175781 6.31515625 8.17101563 5.3828125 8.61328125 C2.73550524 9.9199388 2.73550524 9.9199388 1 13 C0.01 13.33 -0.98 13.66 -2 14 C-2.76699162 15.8072221 -2.76699162 15.8072221 -3.125 17.9375 C-3.59056513 20.18773149 -3.96866759 21.93733519 -5 24 C-4.4225 23.814375 -3.845 23.62875 -3.25 23.4375 C-1 23 -1 23 0.875 23.5 C3.79666808 24.18745131 6.07679505 23.59657244 9 23 C9.94875 22.814375 10.8975 22.62875 11.875 22.4375 C12.926875 22.2209375 12.926875 22.2209375 14 22 C13 25 13 25 9 27 C12.3 27.33 15.6 27.66 19 28 C19 28.99 19 29.98 19 31 C7.615 31.99 7.615 31.99 -4 33 C-4 33.66 -4 34.32 -4 35 C-8.24374496 35.41605343 -10.2831019 35.55482909 -13.72143555 32.89379883 C-16.51004636 29.35223621 -16.53308844 27.8266438 -16.26953125 23.38671875 C-16.20830078 22.13955078 -16.14707031 20.89238281 -16.08398438 19.60742188 C-15.99439453 18.31384766 -15.90480469 17.02027344 -15.8125 15.6875 C-15.74224609 14.37458984 -15.67199219 13.06167969 -15.59960938 11.70898438 C-15.42296966 8.4705896 -15.2222979 5.23552853 -15 2 C-13.68 2 -12.36 2 -11 2 C-10.34 3.98 -9.68 5.96 -9 8 C-8.236875 7.175 -7.47375 6.35 -6.6875 5.5 C-4 3 -4 3 -1 3 C-0.67 2.01 -0.34 1.02 0 0 Z " fill="#898989" transform="translate(16,6)"/>
<path d="M0 0 C0 1.32 0 2.64 0 4 C2.64 4 5.28 4 8 4 C8 5.98 8 7.96 8 10 C7.34 10 6.68 10 6 10 C5.87625 10.9075 5.7525 11.815 5.625 12.75 C5.07890323 15.58970323 4.42736197 17.52590591 3 20 C2.01 19.67 1.02 19.34 0 19 C0.33 18.34 0.66 17.68 1 17 C0.030625 17.495 -0.93875 17.99 -1.9375 18.5 C-6.31652185 20.39965714 -10.30919175 20.24544927 -15 20 C-15.99 20 -16.98 20 -18 20 C-18 17.07150949 -17.56590515 15.14085007 -16.6875 12.375 C-16.44386719 11.57835937 -16.20023438 10.78171875 -15.94921875 9.9609375 C-15.47935547 8.99027344 -15.47935547 8.99027344 -15 8 C-14.01 7.67 -13.02 7.34 -12 7 C-11.21625 6.195625 -10.4325 5.39125 -9.625 4.5625 C-6.68452614 1.69203742 -4.1818242 0 0 0 Z " fill="#8D8D8D" transform="translate(29,11)"/>
<path d="M0 0 C0.66 0 1.32 0 2 0 C2.33 3.96 2.66 7.92 3 12 C4.32 11.67 5.64 11.34 7 11 C7 13.64 7 16.28 7 19 C6.34 19 5.68 19 5 19 C5 20.65 5 22.3 5 24 C6.65 23.67 8.3 23.34 10 23 C10 22.34 10 21.68 10 21 C12.21525012 20.28795532 13.59650874 19.89240233 15.875 20.5 C18.79666808 21.18745131 21.07679505 20.59657244 24 20 C24.94875 19.814375 25.8975 19.62875 26.875 19.4375 C27.926875 19.2209375 27.926875 19.2209375 29 19 C28 22 28 22 24 24 C27.3 24.33 30.6 24.66 34 25 C34 25.99 34 26.98 34 28 C22.615 28.99 22.615 28.99 11 30 C11 30.66 11 31.32 11 32 C7.0343776 32.38878651 4.70580471 32.42508693 1.25 30.34375 C-1.51464578 27.37240173 -1.30877262 24.54045942 -1.26953125 20.60546875 C-1.14350282 18.13133165 -0.99018447 15.65846454 -0.8125 13.1875 C-0.74224609 11.92228516 -0.67199219 10.65707031 -0.59960938 9.35351562 C-0.42300622 6.23352659 -0.22234889 3.11700792 0 0 Z " fill="#6E6E6E" transform="translate(1,9)"/>
<path d="M0 0 C0 1.32 0 2.64 0 4 C0.66 4 1.32 4 2 4 C2.33 4.99 2.66 5.98 3 7 C2.32195313 7.22558594 1.64390625 7.45117188 0.9453125 7.68359375 C-2.79805687 9.3566912 -5.84710045 11.62305265 -9.125 14.0625 C-15.61257434 18.87085811 -15.61257434 18.87085811 -19 20 C-18.566875 18.9790625 -18.566875 18.9790625 -18.125 17.9375 C-16.89674264 14.90698304 -16.89674264 14.90698304 -16.0625 11.25 C-15.711875 10.1775 -15.36125 9.105 -15 8 C-14.01 7.67 -13.02 7.34 -12 7 C-11.21625 6.195625 -10.4325 5.39125 -9.625 4.5625 C-6.68452614 1.69203742 -4.1818242 0 0 0 Z " fill="#9E9E9E" transform="translate(29,11)"/>
<path d="M0 0 C0.66 0 1.32 0 2 0 C2.06058594 0.91523438 2.12117187 1.83046875 2.18359375 2.7734375 C2.26738281 3.96195313 2.35117187 5.15046875 2.4375 6.375 C2.51871094 7.55835938 2.59992188 8.74171875 2.68359375 9.9609375 C2.81084936 12.91518901 2.81084936 12.91518901 4 15 C4.07033769 16.87379605 4.0843022 18.75001102 4.0625 20.625 C4.05347656 21.62789062 4.04445313 22.63078125 4.03515625 23.6640625 C4.02355469 24.43492188 4.01195312 25.20578125 4 26 C4.66 25.67 5.32 25.34 6 25 C7.99960012 24.960008 10.00047242 24.95653201 12 25 C12 25.66 12 26.32 12 27 C10.68 27 9.36 27 8 27 C8 27.99 8 28.98 8 30 C8.99 30 9.98 30 11 30 C11 30.66 11 31.32 11 32 C7.0343776 32.38878651 4.70580471 32.42508693 1.25 30.34375 C-1.51464578 27.37240173 -1.30877262 24.54045942 -1.26953125 20.60546875 C-1.14350282 18.13133165 -0.99018447 15.65846454 -0.8125 13.1875 C-0.74224609 11.92228516 -0.67199219 10.65707031 -0.59960938 9.35351562 C-0.42300622 6.23352659 -0.22234889 3.11700792 0 0 Z " fill="#212121" transform="translate(1,9)"/>
<path d="M0 0 C3 1 3 1 4 3 C4.41563522 7.91996107 4.52206458 12.61957205 2 17 C-1 19 -1 19 -3 19 C-3 17.35 -3 15.7 -3 14 C-2.34 14 -1.68 14 -1 14 C-1.45822468 10.53058454 -1.89131683 7.32604951 -3 4 C-1.5625 1.8125 -1.5625 1.8125 0 0 Z " fill="#858585" transform="translate(9,14)"/>
<path d="M0 0 C0 2.64 0 5.28 0 8 C-0.66 8 -1.32 8 -2 8 C-2 9.65 -2 11.3 -2 13 C3.61 13 9.22 13 15 13 C15 13.33 15 13.66 15 14 C9.06 14.33 3.12 14.66 -3 15 C-3.33 10.38 -3.66 5.76 -4 1 C-1 0 -1 0 0 0 Z " fill="#4C4C4C" transform="translate(8,20)"/>
<path d="M0 0 C2.31 0 4.62 0 7 0 C7 2.31 7 4.62 7 7 C5.00045254 7.04254356 2.99958364 7.04080783 1 7 C0 6 0 6 -0.0625 2.9375 C-0.041875 1.968125 -0.02125 0.99875 0 0 Z " fill="#656565" transform="translate(30,8)"/>
<path d="M0 0 C0.99 0.33 1.98 0.66 3 1 C3.6875 3.25 3.6875 3.25 4 6 C2.6875 8.3125 2.6875 8.3125 1 10 C0.34 10 -0.32 10 -1 10 C-3 7 -3 7 -2.75 4.4375 C-2 2 -2 2 0 0 Z " fill="#707070" transform="translate(9,14)"/>
<path d="M0 0 C1.32 0 2.64 0 4 0 C4.36368892 1.60203467 4.71561952 3.20674203 5.0625 4.8125 C5.25972656 5.70582031 5.45695313 6.59914063 5.66015625 7.51953125 C6 10 6 10 5 13 C4.01 13.33 3.02 13.66 2 14 C2 9.71 2 5.42 2 1 C1.34 0.67 0.68 0.34 0 0 Z " fill="#929292" transform="translate(1,8)"/>
<path d="M0 0 C2.64 0 5.28 0 8 0 C8 0.99 8 1.98 8 3 C4.04 3.66 0.08 4.32 -4 5 C-4 4.01 -4 3.02 -4 2 C-2.68 2 -1.36 2 0 2 C0 1.34 0 0.68 0 0 Z " fill="#5E5E5E" transform="translate(13,34)"/>
<path d="M0 0 C2.64 0.33 5.28 0.66 8 1 C8 1.66 8 2.32 8 3 C8.99 3 9.98 3 11 3 C11 3.66 11 4.32 11 5 C4.64948454 5.36637589 4.64948454 5.36637589 1.5625 3.625 C0 2 0 2 0 0 Z " fill="#343434" transform="translate(1,36)"/>
<path d="M0 0 C0.66 0 1.32 0 2 0 C1.75 2.375 1.75 2.375 1 5 C-1.0625 6.3125 -1.0625 6.3125 -3 7 C-2.25 2.25 -2.25 2.25 0 0 Z " fill="#646464" transform="translate(9,14)"/>
<path d="M0 0 C1.32 0 2.64 0 4 0 C4.66 2.64 5.32 5.28 6 8 C5.34 8 4.68 8 4 8 C4 7.01 4 6.02 4 5 C3.34 5 2.68 5 2 5 C2 3.68 2 2.36 2 1 C1.34 0.67 0.68 0.34 0 0 Z " fill="#9C9C9C" transform="translate(1,8)"/>
<path d="M0 0 C1.65 0 3.3 0 5 0 C4.34 1.32 3.68 2.64 3 4 C1.68 3.67 0.36 3.34 -1 3 C-0.67 2.01 -0.34 1.02 0 0 Z " fill="#717171" transform="translate(14,9)"/>
</svg>
